<?xml version="1.0" encoding="utf-8" ?>
<svg baseProfile="full" height="500px" version="1.1" width="800px" xmlns="http://www.w3.org/2000/svg" xmlns:ev="http://www.w3.org/2001/xml-events" xmlns:xlink="http://www.w3.org/1999/xlink"><defs /><rect fill="white" height="500" stroke="none" width="800" x="0" y="0" /><text fill="#333" font-family="sans-serif" font-size="14px" text-anchor="middle" x="400.0" y="25">Hatch Coaming – Section View</text><rect fill="#D0D0D0" height="20" stroke="#666" stroke-width="1" width="680" x="60" y="325.0" /><rect fill="#2E8B57" height="20" opacity="0.25" stroke="none" width="680" x="60" y="325.0" /><rect fill="#8A2BE2" height="20" opacity="0.25" stroke="none" width="680" x="60" y="325.0" /><text fill="#333" font-family="sans-serif" font-size="9px" x="65" y="360.0">Upper Deck (M01)</text><text fill="#C00" font-family="sans-serif" font-size="7px" x="65" y="370.0">BCA2, BCA(M5)</text><rect fill="#B8B8B8" height="176.0" stroke="#666" stroke-width="1" width="12" x="196.0" y="149.0" /><rect fill="#DC143C" height="176.0" opacity="0.25" stroke="none" width="12" x="196.0" y="149.0" /><rect fill="#B8B8B8" height="176.0" stroke="#666" stroke-width="1" width="12" x="592.0" y="149.0" /><rect fill="#DC143C" height="176.0" opacity="0.25" stroke="none" width="12" x="592.0" y="149.0" /><text fill="#DC143C" font-family="sans-serif" font-size="9px" x="191.0" y="144.0">Coaming Side (M02)</text><text fill="#C00" font-family="sans-serif" font-size="7px" x="191.0" y="161.0">BCA</text><rect fill="#C8C8C8" height="15" stroke="#666" stroke-width="1" width="408.0" x="196.0" y="134.0" /><text fill="#666" font-family="sans-serif" font-size="9px" text-anchor="middle" x="400.0" y="126.0">Coaming Top (M03)</text><line opacity="0.5" stroke="#FF8C00" stroke-width="3" x1="400.0" x2="400.0" y1="322.0" y2="348.0" /><line opacity="0.5" stroke="#DC143C" stroke-width="3" x1="400.0" x2="400.0" y1="322.0" y2="348.0" /><line stroke="#FF8C00" stroke-dasharray="4,2" stroke-width="1" x1="400.0" x2="400.0" y1="322.0" y2="348.0" /><circle cx="202.0" cy="325.0" fill="#888888" opacity="0.4" r="8" /><circle cx="202.0" cy="325.0" fill="none" r="5" stroke="#1E90FF" stroke-width="2" /><circle cx="598.0" cy="325.0" fill="#888888" opacity="0.4" r="8" /><circle cx="598.0" cy="325.0" fill="none" r="5" stroke="#1E90FF" stroke-width="2" /><text fill="#1E90FF" font-family="sans-serif" font-size="8px" x="619.0" y="330.0">J02</text><text fill="#C00" font-family="sans-serif" font-size="7px" x="619.0" y="340.0">PJP</text><line opacity="0.5" stroke="#FF8C00" stroke-width="3" x1="400.0" x2="400.0" y1="322.0" y2="348.0" /><line opacity="0.5" stroke="#DC143C" stroke-width="3" x1="400.0" x2="400.0" y1="322.0" y2="348.0" /><line stroke="#FF8C00" stroke-dasharray="4,2" stroke-width="1" x1="400.0" x2="400.0" y1="322.0" y2="348.0" /><text fill="#333" font-family="sans-serif" font-size="10px" font-weight="bold" x="15" y="455">Legend:</text><rect fill="#FF8C00" height="10" opacity="0.7" width="10" x="15" y="462" /><text fill="#333" font-family="sans-serif" font-size="8px" x="29" y="470">Measure 1 – Construction NDE</text><rect fill="#1E90FF" height="10" opacity="0.7" width="10" x="265" y="462" /><text fill="#333" font-family="sans-serif" font-size="8px" x="279" y="470">Measure 2 – Periodic In‑service NDE</text><rect fill="#DC143C" height="10" opacity="0.7" width="10" x="515" y="462" /><text fill="#333" font-family="sans-serif" font-size="8px" x="529" y="470">Measure 3 – Crack Arrest Measures</text><rect fill="#2E8B57" height="10" opacity="0.7" width="10" x="15" y="477" /><text fill="#333" font-family="sans-serif" font-size="8px" x="29" y="485">Measure 4 – Upper Deck BCA Steel</text><rect fill="#8A2BE2" height="10" opacity="0.7" width="10" x="265" y="477" /><text fill="#333" font-family="sans-serif" font-size="8px" x="279" y="485">Measure 5 – Upper Deck BCA Steel (ext.)</text></svg>