<?xml version="1.0" encoding="utf-8" ?>
<svg baseProfile="full" height="600px" version="1.1" width="800px" xmlns="http://www.w3.org/2000/svg" xmlns:ev="http://www.w3.org/2001/xml-events" xmlns:xlink="http://www.w3.org/1999/xlink"><defs /><rect fill="white" height="600" stroke="none" width="800" x="0" y="0" /><text fill="#333" font-family="sans-serif" font-size="14px" text-anchor="middle" x="400.0" y="25">Hatch Coaming – Plan View</text><rect fill="#E8E8E8" height="440.0" stroke="#666" stroke-width="1" width="586.6666666666666" x="106.66666666666669" y="95.0" /><rect fill="#2E8B57" height="440.0" opacity="0.25" stroke="none" width="586.6666666666666" x="106.66666666666669" y="95.0" /><rect fill="#8A2BE2" height="440.0" opacity="0.25" stroke="none" width="586.6666666666666" x="106.66666666666669" y="95.0" /><text fill="#333" font-family="sans-serif" font-size="10px" x="111.66666666666669" y="110.0">Upper Deck (M01)</text><rect fill="white" height="338.46153846153845" stroke="#333" stroke-width="2" width="451.28205128205127" x="174.35897435897436" y="145.76923076923077" /><text fill="#666" font-family="sans-serif" font-size="11px" text-anchor="middle" x="400.0" y="315.0">Hatch Opening</text><rect fill="none" height="354.46153846153845" stroke="#DC143C" stroke-dasharray="8,4" stroke-width="3" width="467.28205128205127" x="166.35897435897436" y="137.76923076923077" /><rect fill="none" height="354.46153846153845" opacity="0.25" stroke="#DC143C" stroke-width="5" width="467.28205128205127" x="166.35897435897436" y="137.76923076923077" /><text fill="#DC143C" font-family="sans-serif" font-size="9px" x="166.35897435897436" y="132.76923076923077">Coaming Side (M02)</text><line opacity="0.5" stroke="#FF8C00" stroke-width="3" x1="399.0" x2="399.0" y1="95.0" y2="535.0" /><line opacity="0.5" stroke="#DC143C" stroke-width="3" x1="399.0" x2="399.0" y1="95.0" y2="535.0" /><line stroke="#FF8C00" stroke-dasharray="6,3" stroke-width="1.5" x1="400.0" x2="400.0" y1="95.0" y2="535.0" /><text fill="#FF8C00" font-family="sans-serif" font-size="8px" x="403.0" y="90.0">J01 (butt)</text><text fill="#C00" font-family="sans-serif" font-size="7px" x="403.0" y="100.0">UT100%, Offset≥300</text><rect fill="none" height="358.46153846153845" opacity="0.5" stroke="#888888" stroke-width="2" width="471.28205128205127" x="164.35897435897436" y="135.76923076923077" /><text fill="#1E90FF" font-family="sans-serif" font-size="8px" x="638.6410256410256" y="152.76923076923077">J02 (c2d)</text><text fill="#C00" font-family="sans-serif" font-size="7px" x="638.6410256410256" y="162.76923076923077">PJP</text><line opacity="0.5" stroke="#FF8C00" stroke-width="3" x1="399.0" x2="399.0" y1="95.0" y2="535.0" /><line opacity="0.5" stroke="#DC143C" stroke-width="3" x1="399.0" x2="399.0" y1="95.0" y2="535.0" /><line stroke="#FF8C00" stroke-dasharray="6,3" stroke-width="1.5" x1="400.0" x2="400.0" y1="95.0" y2="535.0" /><text fill="#FF8C00" font-family="sans-serif" font-size="8px" x="403.0" y="72.0">J03 (butt)</text><text fill="#C00" font-family="sans-serif" font-size="7px" x="403.0" y="82.0">UT100%, Offset≥300</text><text fill="#333" font-family="sans-serif" font-size="10px" font-weight="bold" x="15" y="545">Legend:</text><rect fill="#FF8C00" height="10" opacity="0.7" width="10" x="15" y="552" /><text fill="#333" font-family="sans-serif" font-size="8px" x="29" y="560">Measure 1 – Construction NDE</text><rect fill="#1E90FF" height="10" opacity="0.7" width="10" x="265" y="552" /><text fill="#333" font-family="sans-serif" font-size="8px" x="279" y="560">Measure 2 – Periodic In‑service NDE</text><rect fill="#DC143C" height="10" opacity="0.7" width="10" x="515" y="552" /><text fill="#333" font-family="sans-serif" font-size="8px" x="529" y="560">Measure 3 – Crack Arrest Measures</text><rect fill="#2E8B57" height="10" opacity="0.7" width="10" x="15" y="567" /><text fill="#333" font-family="sans-serif" font-size="8px" x="29" y="575">Measure 4 – Upper Deck BCA Steel</text><rect fill="#8A2BE2" height="10" opacity="0.7" width="10" x="265" y="567" /><text fill="#333" font-family="sans-serif" font-size="8px" x="279" y="575">Measure 5 – Upper Deck BCA Steel (ext.)</text></svg>