<?xml version="1.0" encoding="utf-8" ?>
<svg baseProfile="full" height="340.0px" version="1.1" viewBox="0,0,760.0,340.0" width="760.0px" xmlns="http://www.w3.org/2000/svg" xmlns:ev="http://www.w3.org/2001/xml-events" xmlns:xlink="http://www.w3.org/1999/xlink"><defs /><rect fill="white" height="340.0" width="760.0" x="0" y="0" /><text fill="black" font-family="Arial" font-size="14px" x="60" y="20">Hatch Coaming Section View</text><rect fill="#E8E8E8" height="15" stroke="#333" stroke-width="1" width="640.0" x="60" y="250.0" /><rect fill="#D0D0D0" height="160.0" stroke="#333" stroke-width="1" width="12" x="90" y="90.0" /><rect fill="#D0D0D0" height="160.0" stroke="#333" stroke-width="1" width="12" x="658.0" y="90.0" /><rect fill="#C0C0C0" height="8" stroke="#333" stroke-width="1" width="42" x="75" y="82.0" /><rect fill="#C0C0C0" height="8" stroke="#333" stroke-width="1" width="42" x="643.0" y="82.0" /><rect fill="#2E8B57" height="15" opacity="0.25" stroke="none" width="640.0" x="60" y="250.0" /><text fill="black" font-family="Arial" font-size="7px" x="62" y="260.5">M01 (MemberRole.upper deck plate)</text><text fill="#333" font-family="Arial" font-size="6px" x="62" y="270.5">BCA(Deck) BCA</text><rect fill="#DC143C" height="160.0" opacity="0.25" stroke="none" width="12" x="90" y="90.0" /><text fill="black" font-family="Arial" font-size="7px" x="92" y="173.0">M02 (MemberRole.hatch coaming side plate)</text><text fill="#333" font-family="Arial" font-size="6px" x="92" y="183.0">CrackArrest BCA2</text><text fill="black" font-family="Arial" font-size="7px" x="77" y="89.0">M03 (MemberRole.hatch coaming top plate)</text><circle cx="380.0" cy="257.5" fill="none" r="5" stroke="#666" stroke-width="1" /><circle cx="380.0" cy="257.5" fill="none" opacity="0.7" r="5" stroke="#FF8C00" stroke-width="2" /><circle cx="380.0" cy="257.5" fill="none" opacity="0.7" r="7" stroke="#DC143C" stroke-width="2" /><text fill="#333" font-family="Arial" font-size="6px" x="390.0" y="260.5">J01: UT100% | CrackArrest Offset≥300</text><circle cx="380.0" cy="257.5" fill="none" r="5" stroke="#666" stroke-width="1" /><circle cx="380.0" cy="257.5" fill="none" opacity="0.7" r="5" stroke="#FF8C00" stroke-width="2" /><circle cx="380.0" cy="257.5" fill="none" opacity="0.7" r="7" stroke="#DC143C" stroke-width="2" /><text fill="#333" font-family="Arial" font-size="6px" x="390.0" y="260.5">J02: UT100% | CrackArrest Offset≥300</text><circle cx="96.0" cy="250.0" fill="none" r="5" stroke="#666" stroke-width="1" /><circle cx="96.0" cy="250.0" fill="none" opacity="0.7" r="5" stroke="#888888" stroke-width="2" /><text fill="#333" font-family="Arial" font-size="6px" x="106.0" y="253.0">J03: PJP</text><text fill="#666" font-family="Arial" font-size="9px" x="350.0" y="280.0">Upper Deck</text><text fill="#666" font-family="Arial" font-size="8px" transform="rotate(-90,90,170.0)" x="85" y="170.0">Coaming Side</text><text fill="#666" font-family="Arial" font-size="8px" x="80" y="79.0">Coaming Top</text><text fill="black" font-family="Arial" font-size="9px" font-weight="bold" x="600.0" y="30">Legend:</text><rect fill="#888" height="10" opacity="0.7" width="10" x="600.0" y="36" /><text fill="black" font-family="Arial" font-size="8px" x="614.0" y="44">Measure 0</text><rect fill="#FF8C00" height="10" opacity="0.7" width="10" x="600.0" y="50" /><text fill="black" font-family="Arial" font-size="8px" x="614.0" y="58">Measure 1 – Construction NDE</text><rect fill="#DC143C" height="10" opacity="0.7" width="10" x="600.0" y="64" /><text fill="black" font-family="Arial" font-size="8px" x="614.0" y="72">Measure 3 – Crack Arrest Measures</text><rect fill="#2E8B57" height="10" opacity="0.7" width="10" x="600.0" y="78" /><text fill="black" font-family="Arial" font-size="8px" x="614.0" y="86">Measure 4 – Upper Deck BCA Steel</text><text fill="#666" font-family="Arial" font-size="9px" x="60" y="330.0">B=8000.0mm, H=2000.0mm</text></svg>