<?xml version="1.0" encoding="utf-8" ?>
<svg baseProfile="full" height="640.0px" version="1.1" viewBox="0,0,760.0,640.0" width="760.0px" xmlns="http://www.w3.org/2000/svg" xmlns:ev="http://www.w3.org/2001/xml-events" xmlns:xlink="http://www.w3.org/1999/xlink"><defs /><rect fill="white" height="640.0" width="760.0" x="0" y="0" /><text fill="black" font-family="Arial" font-size="14px" x="80" y="20">Hatch Coaming Plan View</text><rect fill="#E8E8E8" height="550.0" stroke="#333" stroke-width="1" width="680.0" x="40.0" y="60.0" /><rect fill="white" height="480.0" stroke="#333" stroke-width="2" width="600.0" x="80" y="80" /><text fill="#666" font-family="Arial" font-size="12px" x="340.0" y="320.0">Hatch Opening</text><rect fill="none" height="500.0" stroke="#555" stroke-dasharray="8,4" stroke-width="3" width="620.0" x="70" y="70" /><rect fill="#2E8B57" height="20" opacity="0.25" stroke="#2E8B57" stroke-width="1" width="600.0" x="80" y="565.0" /><text fill="black" font-family="Arial" font-size="8px" x="83" y="575.0">M01 (MemberRole.upper deck plate)</text><text fill="#333" font-family="Arial" font-size="7px" x="83" y="587.0">BCA(Deck) BCA</text><rect fill="#DC143C" height="480.0" opacity="0.25" stroke="#DC143C" stroke-width="1" width="20" x="55" y="80" /><text fill="black" font-family="Arial" font-size="8px" x="58" y="320.0">M02 (MemberRole.hatch coaming side plate)</text><text fill="#333" font-family="Arial" font-size="7px" x="58" y="332.0">CrackArrest BCA2</text><rect fill="#D0D0D0" height="20" opacity="0.5" stroke="#999" stroke-width="1" width="600.0" x="80.0" y="55" /><text fill="black" font-family="Arial" font-size="8px" x="83.0" y="65.0">M03 (MemberRole.hatch coaming top plate)</text><rect fill="#D0D0D0" height="15" opacity="0.5" stroke="#999" stroke-width="1" width="25" x="40.0" y="600.0" /><text fill="black" font-family="Arial" font-size="8px" x="43.0" y="607.5">M04 (MemberRole.attached longitudinal)</text><line stroke="#666" stroke-width="2" x1="280.0" x2="280.0" y1="50" y2="590.0" /><line opacity="0.7" stroke="#FF8C00" stroke-width="3" x1="280.0" x2="280.0" y1="53" y2="593.0" /><line opacity="0.7" stroke="#DC143C" stroke-width="3" x1="280.0" x2="280.0" y1="56" y2="596.0" /><text fill="black" font-family="Arial" font-size="7px" x="270.0" y="315.0">J01</text><text fill="#333" font-family="Arial" font-size="6px" x="270.0" y="328.0">UT100% | CrackArrest Offset≥300</text><line stroke="#666" stroke-width="2" x1="480.0" x2="480.0" y1="50" y2="590.0" /><line opacity="0.7" stroke="#FF8C00" stroke-width="3" x1="480.0" x2="480.0" y1="53" y2="593.0" /><line opacity="0.7" stroke="#DC143C" stroke-width="3" x1="480.0" x2="480.0" y1="56" y2="596.0" /><text fill="black" font-family="Arial" font-size="7px" x="470.0" y="315.0">J02</text><text fill="#333" font-family="Arial" font-size="6px" x="470.0" y="328.0">UT100% | CrackArrest Offset≥300</text><line stroke="#666" stroke-width="2" x1="80" x2="680.0" y1="562.0" y2="562.0" /><line opacity="0.7" stroke="#888888" stroke-width="3" x1="80" x2="680.0" y1="565.0" y2="565.0" /><text fill="black" font-family="Arial" font-size="7px" x="370.0" y="557.0">J03</text><text fill="#333" font-family="Arial" font-size="6px" x="370.0" y="570.0">PJP</text><text fill="black" font-family="Arial" font-size="9px" font-weight="bold" x="600.0" y="30">Legend:</text><rect fill="#888" height="10" opacity="0.7" width="10" x="600.0" y="36" /><text fill="black" font-family="Arial" font-size="8px" x="614.0" y="44">Measure 0</text><rect fill="#FF8C00" height="10" opacity="0.7" width="10" x="600.0" y="50" /><text fill="black" font-family="Arial" font-size="8px" x="614.0" y="58">Measure 1 – Construction NDE</text><rect fill="#DC143C" height="10" opacity="0.7" width="10" x="600.0" y="64" /><text fill="black" font-family="Arial" font-size="8px" x="614.0" y="72">Measure 3 – Crack Arrest Measures</text><rect fill="#2E8B57" height="10" opacity="0.7" width="10" x="600.0" y="78" /><text fill="black" font-family="Arial" font-size="8px" x="614.0" y="86">Measure 4 – Upper Deck BCA Steel</text><text fill="#666" font-family="Arial" font-size="9px" x="80" y="630.0">L=10000.0mm, B=8000.0mm</text></svg>