<?xml version="1.0" encoding="utf-8" ?>
<svg baseProfile="full" height="600px" version="1.1" width="800px" xmlns="http://www.w3.org/2000/svg" xmlns:ev="http://www.w3.org/2001/xml-events" xmlns:xlink="http://www.w3.org/1999/xlink"><defs /><rect fill="white" height="600" stroke="none" width="800" x="0" y="0" /><text fill="#333" font-family="sans-serif" font-size="14px" text-anchor="middle" x="400.0" y="25">Hatch Coaming – Plan View (schematic – dimensions unspecified)</text><rect fill="#E8E8E8" height="440" stroke="#666" stroke-width="1" width="640" x="80.0" y="95.0" /><text fill="#333" font-family="sans-serif" font-size="10px" x="85.0" y="110.0">Upper Deck (M01)</text><rect fill="white" height="286.0" stroke="#333" stroke-width="2" width="448.0" x="176.0" y="172.0" /><text fill="#666" font-family="sans-serif" font-size="11px" text-anchor="middle" x="400.0" y="315.0">Hatch Opening</text><rect fill="none" height="302.0" stroke="#DC143C" stroke-dasharray="8,4" stroke-width="3" width="464.0" x="168.0" y="164.0" /><text fill="#DC143C" font-family="sans-serif" font-size="9px" x="168.0" y="159.0">Coaming Side (M02)</text><line stroke="#FF8C00" stroke-dasharray="6,3" stroke-width="1.5" x1="400.0" x2="400.0" y1="95.0" y2="535.0" /><text fill="#FF8C00" font-family="sans-serif" font-size="8px" x="403.0" y="90.0">J01 (butt)</text><rect fill="none" height="306.0" opacity="0.5" stroke="#888888" stroke-width="2" width="468.0" x="166.0" y="162.0" /><text fill="#1E90FF" font-family="sans-serif" font-size="8px" x="637.0" y="179.0">J02 (c2d)</text><text fill="#C00" font-family="sans-serif" font-size="7px" x="637.0" y="189.0">PJP</text><line stroke="#FF8C00" stroke-dasharray="6,3" stroke-width="1.5" x1="400.0" x2="400.0" y1="95.0" y2="535.0" /><text fill="#FF8C00" font-family="sans-serif" font-size="8px" x="403.0" y="72.0">J03 (butt)</text><text fill="#333" font-family="sans-serif" font-size="10px" font-weight="bold" x="15" y="545">Legend:</text><rect fill="#FF8C00" height="10" opacity="0.7" width="10" x="15" y="552" /><text fill="#333" font-family="sans-serif" font-size="8px" x="29" y="560">Measure 1 – Construction NDE</text><rect fill="#1E90FF" height="10" opacity="0.7" width="10" x="265" y="552" /><text fill="#333" font-family="sans-serif" font-size="8px" x="279" y="560">Measure 2 – Periodic In‑service NDE</text><rect fill="#DC143C" height="10" opacity="0.7" width="10" x="515" y="552" /><text fill="#333" font-family="sans-serif" font-size="8px" x="529" y="560">Measure 3 – Crack Arrest Measures</text><rect fill="#2E8B57" height="10" opacity="0.7" width="10" x="15" y="567" /><text fill="#333" font-family="sans-serif" font-size="8px" x="29" y="575">Measure 4 – Upper Deck BCA Steel</text><rect fill="#8A2BE2" height="10" opacity="0.7" width="10" x="265" y="567" /><text fill="#333" font-family="sans-serif" font-size="8px" x="279" y="575">Measure 5 – Upper Deck BCA Steel (ext.)</text></svg>