<?xml version="1.0" encoding="UTF-8"?><svg xmlns="http://www.w3.org/2000/svg" width="1000" height="760" viewBox="0 0 1000 760"><style>text { font-family: Arial, sans-serif; fill:#222; }.title { font-size: 20px; font-weight: 700; }.small { font-size: 11px; fill:#444; }</style><text x="40" y="44" class="title">Hatch Coaming Section (누적 오버레이)</text><text x="40" y="64" class="small">B=8000.0 H=2000.0</text><rect x="140.0" y="320.0" width="720.0" height="22" fill="#DCEEFF" stroke="#225EA8" stroke-width="1"/><rect x="124.0" y="140" width="16" height="180.0" fill="#FFE2E2" stroke="#8E1B1B" stroke-width="1"/><rect x="860.0" y="140" width="16" height="180.0" fill="#FFE2E2" stroke="#8E1B1B" stroke-width="1"/><rect x="124.0" y="126" width="752.0" height="14" fill="#FFF1D6" stroke="#A35300" stroke-width="1"/><rect x="140.0" y="140" width="720.0" height="180.0" fill="none" stroke="#555" stroke-dasharray="4,4"/><rect x="140.0" y="320.0" width="720.0" height="22" fill="#2E8B57" fill-opacity="0.25" stroke="none"/><rect x="140.0" y="320.0" width="720.0" height="22" fill="#8A2BE2" fill-opacity="0.22" stroke="none"/><line x1="120.0" y1="239.0" x2="880.0" y2="239.0" stroke="#FF8C00" stroke-width="3" stroke-dasharray="6,3"/><line x1="120.0" y1="239.0" x2="880.0" y2="239.0" stroke="#1E90FF" stroke-width="3" stroke-dasharray="6,3"/><line x1="120.0" y1="239.0" x2="880.0" y2="239.0" stroke="#DC143C" stroke-width="3" stroke-dasharray="6,3"/><line x1="120.0" y1="239.0" x2="880.0" y2="239.0" stroke="#FF8C00" stroke-width="3" stroke-dasharray="6,3"/><line x1="120.0" y1="239.0" x2="880.0" y2="239.0" stroke="#1E90FF" stroke-width="3" stroke-dasharray="6,3"/><line x1="120.0" y1="239.0" x2="880.0" y2="239.0" stroke="#DC143C" stroke-width="3" stroke-dasharray="6,3"/><circle cx="132.0" cy="320.0" r="6" fill="#666666" /><circle cx="868.0" cy="320.0" r="6" fill="#666666" /><text x="500.0" y="368.0" class="small">Section B=8000.0mm</text><text x="884.0" y="230.0" class="small">H=2000.0mm</text></svg>