<?xml version="1.0" encoding="utf-8" ?>
<svg baseProfile="full" height="380.0px" version="1.1" viewBox="0,0,920.0,380.0" width="920.0px" xmlns="http://www.w3.org/2000/svg" xmlns:ev="http://www.w3.org/2001/xml-events" xmlns:xlink="http://www.w3.org/1999/xlink"><defs /><rect fill="white" height="380.0" width="920.0" x="0" y="0" /><text fill="black" font-family="Arial" font-size="14px" x="60" y="20">Hatch Coaming Section View</text><rect fill="#E8E8E8" height="15" stroke="#333" stroke-width="1" width="800.0" x="60" y="290.0" /><rect fill="#D0D0D0" height="200.0" stroke="#333" stroke-width="1" width="12" x="90" y="90.0" /><rect fill="#D0D0D0" height="200.0" stroke="#333" stroke-width="1" width="12" x="818.0" y="90.0" /><rect fill="#C0C0C0" height="8" stroke="#333" stroke-width="1" width="42" x="75" y="82.0" /><rect fill="#C0C0C0" height="8" stroke="#333" stroke-width="1" width="42" x="803.0" y="82.0" /><rect fill="#2E8B57" height="15" opacity="0.25" stroke="none" width="800.0" x="60" y="290.0" /><rect fill="#8A2BE2" height="15" opacity="0.25" stroke="none" width="800.0" x="62" y="292.0" /><text fill="black" font-family="Arial" font-size="7px" x="62" y="300.5">M01 (MemberRole.upper deck plate)</text><text fill="#333" font-family="Arial" font-size="6px" x="62" y="310.5">BCA(Deck) BCA | BCA(Ext) BCA</text><rect fill="#DC143C" height="200.0" opacity="0.25" stroke="none" width="12" x="90" y="90.0" /><text fill="black" font-family="Arial" font-size="7px" x="92" y="193.0">M02 (MemberRole.hatch coaming side plate)</text><text fill="#333" font-family="Arial" font-size="6px" x="92" y="203.0">CrackArrest BCA2</text><text fill="black" font-family="Arial" font-size="7px" x="77" y="89.0">M03 (MemberRole.hatch coaming top plate)</text><circle cx="460.0" cy="297.5" fill="none" r="5" stroke="#666" stroke-width="1" /><circle cx="460.0" cy="297.5" fill="none" opacity="0.7" r="5" stroke="#FF8C00" stroke-width="2" /><circle cx="460.0" cy="297.5" fill="none" opacity="0.7" r="7" stroke="#1E90FF" stroke-width="2" /><circle cx="460.0" cy="297.5" fill="none" opacity="0.7" r="9" stroke="#DC143C" stroke-width="2" /><text fill="#333" font-family="Arial" font-size="6px" x="470.0" y="300.5">J01: UT100% | InSvcNDE | CrackArrest CTOD≥0.18 EGW禁</text><circle cx="460.0" cy="297.5" fill="none" r="5" stroke="#666" stroke-width="1" /><circle cx="460.0" cy="297.5" fill="none" opacity="0.7" r="5" stroke="#FF8C00" stroke-width="2" /><circle cx="460.0" cy="297.5" fill="none" opacity="0.7" r="7" stroke="#1E90FF" stroke-width="2" /><circle cx="460.0" cy="297.5" fill="none" opacity="0.7" r="9" stroke="#DC143C" stroke-width="2" /><text fill="#333" font-family="Arial" font-size="6px" x="470.0" y="300.5">J02: UT100% | InSvcNDE | CrackArrest CTOD≥0.18 EGW禁</text><circle cx="96.0" cy="290.0" fill="none" r="5" stroke="#666" stroke-width="1" /><circle cx="96.0" cy="290.0" fill="none" opacity="0.7" r="5" stroke="#888888" stroke-width="2" /><text fill="#333" font-family="Arial" font-size="6px" x="106.0" y="293.0">J03: PJP</text><circle cx="460.0" cy="297.5" fill="none" r="5" stroke="#666" stroke-width="1" /><circle cx="460.0" cy="297.5" fill="none" opacity="0.7" r="5" stroke="#FF8C00" stroke-width="2" /><circle cx="460.0" cy="297.5" fill="none" opacity="0.7" r="7" stroke="#1E90FF" stroke-width="2" /><circle cx="460.0" cy="297.5" fill="none" opacity="0.7" r="9" stroke="#DC143C" stroke-width="2" /><text fill="#333" font-family="Arial" font-size="6px" x="470.0" y="300.5">J04: UT100% | InSvcNDE | CrackArrest CTOD≥0.18 EGW禁</text><text fill="#666" font-family="Arial" font-size="9px" x="430.0" y="320.0">Upper Deck</text><text fill="#666" font-family="Arial" font-size="8px" transform="rotate(-90,90,190.0)" x="85" y="190.0">Coaming Side</text><text fill="#666" font-family="Arial" font-size="8px" x="80" y="79.0">Coaming Top</text><text fill="black" font-family="Arial" font-size="9px" font-weight="bold" x="760.0" y="30">Legend:</text><rect fill="#888" height="10" opacity="0.7" width="10" x="760.0" y="36" /><text fill="black" font-family="Arial" font-size="8px" x="774.0" y="44">Measure 0</text><rect fill="#FF8C00" height="10" opacity="0.7" width="10" x="760.0" y="50" /><text fill="black" font-family="Arial" font-size="8px" x="774.0" y="58">Measure 1 – Construction NDE</text><rect fill="#1E90FF" height="10" opacity="0.7" width="10" x="760.0" y="64" /><text fill="black" font-family="Arial" font-size="8px" x="774.0" y="72">Measure 2 – Periodic In-service NDE</text><rect fill="#DC143C" height="10" opacity="0.7" width="10" x="760.0" y="78" /><text fill="black" font-family="Arial" font-size="8px" x="774.0" y="86">Measure 3 – Crack Arrest Measures</text><rect fill="#2E8B57" height="10" opacity="0.7" width="10" x="760.0" y="92" /><text fill="black" font-family="Arial" font-size="8px" x="774.0" y="100">Measure 4 – Upper Deck BCA Steel</text><rect fill="#8A2BE2" height="10" opacity="0.7" width="10" x="760.0" y="106" /><text fill="black" font-family="Arial" font-size="8px" x="774.0" y="114">Measure 5 – Upper Deck BCA Steel (extended)</text><text fill="#666" font-family="Arial" font-size="9px" x="60" y="370.0">B=10000.0mm, H=2500.0mm</text></svg>