<?xml version="1.0" encoding="utf-8" ?>
<svg baseProfile="full" height="760.0px" version="1.1" viewBox="0,0,880.0,760.0" width="880.0px" xmlns="http://www.w3.org/2000/svg" xmlns:ev="http://www.w3.org/2001/xml-events" xmlns:xlink="http://www.w3.org/1999/xlink"><defs /><rect fill="white" height="760.0" width="880.0" x="0" y="0" /><text fill="black" font-family="Arial" font-size="14px" x="80" y="20">Hatch Coaming Plan View</text><rect fill="#E8E8E8" height="670.0" stroke="#333" stroke-width="1" width="800.0" x="40.0" y="60.0" /><rect fill="white" height="600.0" stroke="#333" stroke-width="2" width="720.0" x="80" y="80" /><text fill="#666" font-family="Arial" font-size="12px" x="400.0" y="380.0">Hatch Opening</text><rect fill="none" height="620.0" stroke="#555" stroke-dasharray="8,4" stroke-width="3" width="740.0" x="70" y="70" /><rect fill="#2E8B57" height="20" opacity="0.25" stroke="#2E8B57" stroke-width="1" width="720.0" x="80" y="685.0" /><rect fill="#8A2BE2" height="20" opacity="0.25" stroke="#8A2BE2" stroke-width="1" width="720.0" x="82" y="687.0" /><text fill="black" font-family="Arial" font-size="8px" x="83" y="695.0">M01 (MemberRole.upper deck plate)</text><text fill="#333" font-family="Arial" font-size="7px" x="83" y="707.0">BCA(Deck) BCA | BCA(Ext) BCA</text><rect fill="#DC143C" height="600.0" opacity="0.25" stroke="#DC143C" stroke-width="1" width="20" x="55" y="80" /><text fill="black" font-family="Arial" font-size="8px" x="58" y="380.0">M02 (MemberRole.hatch coaming side plate)</text><text fill="#333" font-family="Arial" font-size="7px" x="58" y="392.0">CrackArrest BCA2</text><rect fill="#D0D0D0" height="20" opacity="0.5" stroke="#999" stroke-width="1" width="720.0" x="80.0" y="55" /><text fill="black" font-family="Arial" font-size="8px" x="83.0" y="65.0">M03 (MemberRole.hatch coaming top plate)</text><rect fill="#D0D0D0" height="15" opacity="0.5" stroke="#999" stroke-width="1" width="25" x="40.0" y="720.0" /><text fill="black" font-family="Arial" font-size="8px" x="43.0" y="727.5">M04 (MemberRole.attached longitudinal)</text><line stroke="#666" stroke-width="2" x1="260.0" x2="260.0" y1="50" y2="710.0" /><line opacity="0.7" stroke="#FF8C00" stroke-width="3" x1="260.0" x2="260.0" y1="53" y2="713.0" /><line opacity="0.7" stroke="#1E90FF" stroke-width="3" x1="260.0" x2="260.0" y1="56" y2="716.0" /><line opacity="0.7" stroke="#DC143C" stroke-width="3" x1="260.0" x2="260.0" y1="59" y2="719.0" /><text fill="black" font-family="Arial" font-size="7px" x="250.0" y="375.0">J01</text><text fill="#333" font-family="Arial" font-size="6px" x="250.0" y="388.0">UT100% | InSvcNDE | CrackArrest CTOD≥0.18 EGW禁</text><line stroke="#666" stroke-width="2" x1="440.0" x2="440.0" y1="50" y2="710.0" /><line opacity="0.7" stroke="#FF8C00" stroke-width="3" x1="440.0" x2="440.0" y1="53" y2="713.0" /><line opacity="0.7" stroke="#1E90FF" stroke-width="3" x1="440.0" x2="440.0" y1="56" y2="716.0" /><line opacity="0.7" stroke="#DC143C" stroke-width="3" x1="440.0" x2="440.0" y1="59" y2="719.0" /><text fill="black" font-family="Arial" font-size="7px" x="430.0" y="375.0">J02</text><text fill="#333" font-family="Arial" font-size="6px" x="430.0" y="388.0">UT100% | InSvcNDE | CrackArrest CTOD≥0.18 EGW禁</text><line stroke="#666" stroke-width="2" x1="620.0" x2="620.0" y1="50" y2="710.0" /><line opacity="0.7" stroke="#FF8C00" stroke-width="3" x1="620.0" x2="620.0" y1="53" y2="713.0" /><line opacity="0.7" stroke="#1E90FF" stroke-width="3" x1="620.0" x2="620.0" y1="56" y2="716.0" /><line opacity="0.7" stroke="#DC143C" stroke-width="3" x1="620.0" x2="620.0" y1="59" y2="719.0" /><text fill="black" font-family="Arial" font-size="7px" x="610.0" y="375.0">J04</text><text fill="#333" font-family="Arial" font-size="6px" x="610.0" y="388.0">UT100% | InSvcNDE | CrackArrest CTOD≥0.18 EGW禁</text><line stroke="#666" stroke-width="2" x1="80" x2="800.0" y1="682.0" y2="682.0" /><line opacity="0.7" stroke="#888888" stroke-width="3" x1="80" x2="800.0" y1="685.0" y2="685.0" /><text fill="black" font-family="Arial" font-size="7px" x="430.0" y="677.0">J03</text><text fill="#333" font-family="Arial" font-size="6px" x="430.0" y="690.0">PJP</text><text fill="black" font-family="Arial" font-size="9px" font-weight="bold" x="720.0" y="30">Legend:</text><rect fill="#888" height="10" opacity="0.7" width="10" x="720.0" y="36" /><text fill="black" font-family="Arial" font-size="8px" x="734.0" y="44">Measure 0</text><rect fill="#FF8C00" height="10" opacity="0.7" width="10" x="720.0" y="50" /><text fill="black" font-family="Arial" font-size="8px" x="734.0" y="58">Measure 1 – Construction NDE</text><rect fill="#1E90FF" height="10" opacity="0.7" width="10" x="720.0" y="64" /><text fill="black" font-family="Arial" font-size="8px" x="734.0" y="72">Measure 2 – Periodic In-service NDE</text><rect fill="#DC143C" height="10" opacity="0.7" width="10" x="720.0" y="78" /><text fill="black" font-family="Arial" font-size="8px" x="734.0" y="86">Measure 3 – Crack Arrest Measures</text><rect fill="#2E8B57" height="10" opacity="0.7" width="10" x="720.0" y="92" /><text fill="black" font-family="Arial" font-size="8px" x="734.0" y="100">Measure 4 – Upper Deck BCA Steel</text><rect fill="#8A2BE2" height="10" opacity="0.7" width="10" x="720.0" y="106" /><text fill="black" font-family="Arial" font-size="8px" x="734.0" y="114">Measure 5 – Upper Deck BCA Steel (extended)</text><text fill="#666" font-family="Arial" font-size="9px" x="80" y="750.0">L=12000.0mm, B=10000.0mm</text></svg>