<?xml version="1.0" encoding="UTF-8"?><svg xmlns="http://www.w3.org/2000/svg" width="1200" height="820" viewBox="0 0 1200 820"><style>text { font-family: Arial, sans-serif; fill:#222; }.title { font-size: 20px; font-weight: 700; }.label { font-size: 12px; }.small { font-size: 10px; fill:#444; }</style><text x="40" y="44" class="title">Hatch Coaming Plan (누적 오버레이)</text><text x="40" y="64" class="label">L=10000.0 B=8000.0</text><rect x="231.25" y="120" width="737.5" height="590.0" fill="#F8FBFF" stroke="#333" stroke-width="2"/><rect x="231.25" y="92" width="737.5" height="28" fill="#DCEEFF" stroke="#225EA8" stroke-width="1"/><rect x="231.25" y="710.0" width="737.5" height="28" fill="#DCEEFF" stroke="#225EA8" stroke-width="1"/><rect x="211.25" y="120" width="20" height="590.0" fill="#FFE2E2" stroke="#8E1B1B" stroke-width="1"/><rect x="968.75" y="120" width="20" height="590.0" fill="#FFE2E2" stroke="#8E1B1B" stroke-width="1"/><rect x="211.25" y="80" width="777.5" height="12" fill="#FFF1D6" stroke="#A35300" stroke-width="1"/><rect x="231.25" y="92" width="737.5" height="28" fill="#2E8B57" fill-opacity="0.25" stroke="none" /><rect x="231.25" y="92" width="737.5" height="28" fill="#8A2BE2" fill-opacity="0.22" stroke="none" /><rect x="231.25" y="710.0" width="737.5" height="28" fill="#2E8B57" fill-opacity="0.25" stroke="none" /><rect x="231.25" y="710.0" width="737.5" height="28" fill="#8A2BE2" fill-opacity="0.22" stroke="none" /><line x1="415.625" y1="78" x2="415.625" y2="746.0" stroke="#FF8C00" stroke-width="3" stroke-dasharray="6,4"/><line x1="415.625" y1="78" x2="415.625" y2="746.0" stroke="#1E90FF" stroke-width="3" stroke-dasharray="6,4"/><line x1="415.625" y1="78" x2="415.625" y2="746.0" stroke="#DC143C" stroke-width="3" stroke-dasharray="6,4"/><text x="415.625" y="762.0" class="small">J01</text><line x1="600.0" y1="78" x2="600.0" y2="746.0" stroke="#FF8C00" stroke-width="3" stroke-dasharray="6,4"/><line x1="600.0" y1="78" x2="600.0" y2="746.0" stroke="#1E90FF" stroke-width="3" stroke-dasharray="6,4"/><line x1="600.0" y1="78" x2="600.0" y2="746.0" stroke="#DC143C" stroke-width="3" stroke-dasharray="6,4"/><text x="600.0" y="762.0" class="small">J02</text><line x1="211.25" y1="120" x2="231.25" y2="120" stroke="#666666" stroke-width="4"/><text x="205.25" y="114" class="small">J03</text><text x="40" y="688" class="label">Legend (Measure)</text><rect x="40" y="700" width="18" height="12" fill="#FF8C00" fill-opacity="0.45"/><text x="62" y="711" class="small">M1</text><rect x="115" y="700" width="18" height="12" fill="#1E90FF" fill-opacity="0.45"/><text x="137" y="711" class="small">M2</text><rect x="190" y="700" width="18" height="12" fill="#DC143C" fill-opacity="0.45"/><text x="212" y="711" class="small">M3</text><rect x="265" y="700" width="18" height="12" fill="#2E8B57" fill-opacity="0.45"/><text x="287" y="711" class="small">M4</text><rect x="340" y="700" width="18" height="12" fill="#8A2BE2" fill-opacity="0.45"/><text x="362" y="711" class="small">M5</text><text x="40" y="728" class="small">Keywords: UT100% / Offset≥300 / CTOD≥0.18 / BCA / PJP / EGW 금지</text></svg>